<?xml version="1.0" standalone="no"?>
<!DOCTYPE svg PUBLIC "-//W3C//DTD SVG 20010904//EN"
 "http://www.w3.org/TR/2001/REC-SVG-20010904/DTD/svg10.dtd">
<svg version="1.0" xmlns="http://www.w3.org/2000/svg"
 width="16.000000pt" height="16.000000pt" viewBox="0 0 16.000000 16.000000"
 preserveAspectRatio="xMidYMid meet">
<metadata>
Created by potrace 1.11, written by Peter Selinger 2001-2013
</metadata>
<g transform="translate(0.000000,16.000000) scale(0.007111,-0.007111)"
fill="#000000" stroke="none">
<path d="M833 1951 c-55 -14 -137 -59 -170 -93 -31 -32 -291 -514 -319 -592
-8 -22 -14 -75 -14 -123 l0 -84 101 -197 c221 -430 215 -420 301 -467 92 -50
129 -55 423 -52 259 3 272 4 329 27 101 41 141 90 252 305 218 421 199 376
199 475 l0 87 -67 134 c-131 262 -236 453 -268 487 -18 19 -62 48 -99 66 l-66
31 -285 2 c-157 1 -299 -2 -317 -6z m632 -98 c77 -41 67 -27 225 -328 165
-314 155 -290 155 -374 0 -83 9 -59 -123 -311 -30 -58 -79 -152 -109 -210 -34
-65 -70 -119 -95 -142 -67 -62 -105 -69 -399 -68 l-257 1 -59 29 c-36 16 -71
42 -85 61 -14 19 -67 115 -118 214 -197 379 -183 347 -183 424 -1 78 -2 76
194 451 140 269 145 272 394 280 261 8 411 -1 460 -27z"/>
<path d="M1072 1583 c-32 -28 -33 -74 -2 -100 19 -17 20 -30 20 -294 l0 -276
-45 -1 -45 -1 -1 37 c0 20 -2 51 -4 67 -2 17 -6 62 -9 100 -8 83 -16 161 -21
193 -2 14 4 33 15 45 50 53 -5 128 -76 104 -47 -16 -50 -82 -5 -119 12 -10 21
-28 22 -40 0 -13 2 -36 4 -53 6 -48 14 -125 20 -200 4 -38 8 -84 10 -101 4
-30 1 -33 -40 -43 -24 -6 -48 -11 -53 -11 -5 0 -15 28 -21 63 -6 34 -21 104
-32 154 -19 85 -19 94 -5 115 9 12 16 32 16 43 0 29 -36 65 -63 65 -77 0 -93
-97 -23 -137 16 -9 73 -291 81 -403 4 -41 10 -79 15 -84 4 -4 23 -3 42 3 98
32 367 30 500 -4 29 -8 34 2 37 70 3 68 11 123 46 305 12 64 31 108 56 131 35
33 38 70 7 99 -60 55 -141 -17 -98 -87 15 -25 15 -34 4 -78 -8 -27 -16 -68
-20 -90 -3 -22 -7 -42 -9 -45 -2 -4 -7 -29 -11 -56 -8 -64 -10 -66 -47 -59
-73 15 -69 8 -62 103 3 47 8 98 10 113 2 15 6 60 10 101 8 92 12 108 41 137
55 55 2 133 -73 107 -38 -12 -47 -74 -16 -108 15 -17 14 -49 -3 -183 -2 -16
-6 -73 -10 -125 -4 -52 -8 -102 -9 -110 -1 -11 -14 -15 -46 -15 l-44 0 0 275
c0 271 0 274 23 297 27 28 28 62 2 91 -25 27 -60 28 -88 5z m58 -54 c0 -14 -5
-19 -17 -17 -26 5 -29 38 -4 38 15 0 21 -6 21 -21z m-182 -132 c2 -12 -3 -17
-17 -17 -12 0 -21 6 -21 13 0 31 32 34 38 4z m362 4 c0 -24 -26 -35 -34 -14
-8 19 1 33 20 33 8 0 14 -9 14 -19z m176 -150 c-22 -21 -46 0 -26 24 10 12 16
13 27 3 12 -10 12 -13 -1 -27z m-718 12 c-2 -10 -10 -18 -18 -18 -8 0 -16 8
-18 18 -2 12 3 17 18 17 15 0 20 -5 18 -17z m558 -412 c34 -9 41 -15 39 -34
-1 -12 -3 -30 -4 -40 -1 -16 -7 -17 -58 -10 -75 10 -312 10 -386 0 l-58 -9 3
44 3 43 65 11 c81 13 341 10 396 -5z"/>
</g>
</svg>
